<mxfile host="app.diagrams.net" modified="2023-12-18T02:50:10.582Z" agent="Mozilla/5.0 (Macintosh; Intel Mac OS X 10_15_7) AppleWebKit/537.36 (KHTML, like Gecko) Chrome/120.0.0.0 Safari/537.36" etag="BYCzyWhImTDO1QSEkyew" version="22.1.9" type="github">
  <diagram name="第 1 页" id="u5FFTVi0Q0gGzKXf6nqO">
    <mxGraphModel dx="719" dy="401" grid="1" gridSize="10" guides="1" tooltips="1" connect="1" arrows="1" fold="1" page="1" pageScale="1" pageWidth="827" pageHeight="1169" math="0" shadow="0">
      <root>
        <mxCell id="0" />
        <mxCell id="1" parent="0" />
        <mxCell id="JLIOH4QTxJKtmaAszeLq-3" value="" style="edgeStyle=orthogonalEdgeStyle;rounded=0;orthogonalLoop=1;jettySize=auto;html=1;" edge="1" parent="1" source="JLIOH4QTxJKtmaAszeLq-1" target="JLIOH4QTxJKtmaAszeLq-2">
          <mxGeometry relative="1" as="geometry" />
        </mxCell>
        <mxCell id="JLIOH4QTxJKtmaAszeLq-1" value="开始" style="rounded=1;whiteSpace=wrap;html=1;fillColor=#008a00;fontColor=#ffffff;strokeColor=#005700;" vertex="1" parent="1">
          <mxGeometry x="80" y="250" width="80" height="40" as="geometry" />
        </mxCell>
        <mxCell id="JLIOH4QTxJKtmaAszeLq-5" value="" style="edgeStyle=orthogonalEdgeStyle;rounded=0;orthogonalLoop=1;jettySize=auto;html=1;" edge="1" parent="1" source="JLIOH4QTxJKtmaAszeLq-2" target="JLIOH4QTxJKtmaAszeLq-4">
          <mxGeometry relative="1" as="geometry" />
        </mxCell>
        <mxCell id="JLIOH4QTxJKtmaAszeLq-8" value="是" style="edgeLabel;html=1;align=center;verticalAlign=middle;resizable=0;points=[];" vertex="1" connectable="0" parent="JLIOH4QTxJKtmaAszeLq-5">
          <mxGeometry x="-0.1867" y="-1" relative="1" as="geometry">
            <mxPoint as="offset" />
          </mxGeometry>
        </mxCell>
        <mxCell id="JLIOH4QTxJKtmaAszeLq-2" value="是否获取到广告投放" style="rhombus;whiteSpace=wrap;html=1;rounded=0;fillColor=#d80073;fontColor=#ffffff;strokeColor=#A50040;" vertex="1" parent="1">
          <mxGeometry x="230" y="230" width="80" height="80" as="geometry" />
        </mxCell>
        <mxCell id="JLIOH4QTxJKtmaAszeLq-7" value="" style="edgeStyle=orthogonalEdgeStyle;rounded=0;orthogonalLoop=1;jettySize=auto;html=1;" edge="1" parent="1" source="JLIOH4QTxJKtmaAszeLq-4" target="JLIOH4QTxJKtmaAszeLq-6">
          <mxGeometry relative="1" as="geometry" />
        </mxCell>
        <mxCell id="JLIOH4QTxJKtmaAszeLq-9" value="是" style="edgeLabel;html=1;align=center;verticalAlign=middle;resizable=0;points=[];" vertex="1" connectable="0" parent="JLIOH4QTxJKtmaAszeLq-7">
          <mxGeometry x="-0.1133" y="-1" relative="1" as="geometry">
            <mxPoint as="offset" />
          </mxGeometry>
        </mxCell>
        <mxCell id="JLIOH4QTxJKtmaAszeLq-4" value="是否有滑动素材参数" style="rhombus;whiteSpace=wrap;html=1;rounded=0;fillColor=#d80073;fontColor=#ffffff;strokeColor=#A50040;" vertex="1" parent="1">
          <mxGeometry x="400" y="230" width="80" height="80" as="geometry" />
        </mxCell>
        <mxCell id="JLIOH4QTxJKtmaAszeLq-11" value="" style="edgeStyle=orthogonalEdgeStyle;rounded=0;orthogonalLoop=1;jettySize=auto;html=1;" edge="1" parent="1" source="JLIOH4QTxJKtmaAszeLq-6" target="JLIOH4QTxJKtmaAszeLq-10">
          <mxGeometry relative="1" as="geometry" />
        </mxCell>
        <mxCell id="JLIOH4QTxJKtmaAszeLq-12" value="否" style="edgeLabel;html=1;align=center;verticalAlign=middle;resizable=0;points=[];" vertex="1" connectable="0" parent="JLIOH4QTxJKtmaAszeLq-11">
          <mxGeometry x="-0.2467" relative="1" as="geometry">
            <mxPoint as="offset" />
          </mxGeometry>
        </mxCell>
        <mxCell id="JLIOH4QTxJKtmaAszeLq-6" value="投放是否为预置模版" style="rhombus;whiteSpace=wrap;html=1;rounded=0;fillColor=#d80073;fontColor=#ffffff;strokeColor=#A50040;" vertex="1" parent="1">
          <mxGeometry x="540" y="230" width="80" height="80" as="geometry" />
        </mxCell>
        <mxCell id="JLIOH4QTxJKtmaAszeLq-10" value="是否已经有本地缓存的素材" style="rhombus;whiteSpace=wrap;html=1;rounded=0;fillColor=#d80073;fontColor=#ffffff;strokeColor=#A50040;" vertex="1" parent="1">
          <mxGeometry x="680" y="230" width="80" height="80" as="geometry" />
        </mxCell>
      </root>
    </mxGraphModel>
  </diagram>
</mxfile>
